<svg height="479pt" viewBox="0 0 479.43819 479" width="479pt" xmlns="http://www.w3.org/2000/svg"><path d="m351.4375 72.230469c-17.679688 8-27.4375-1.4375-40 8-15.519531 11.679687-21.757812 41.921875-8 64 9.921875 15.839843 27.839844 19.601562 48 24 27.441406 6 38.082031-6.71875 64 0 11.5625 3.316406 22.410156 8.742187 32 16 10.457031 8.597656 18.335938 19.914062 22.769531 32.703125-6.152343-61.335938-36.480469-117.699219-84.289062-156.621094-3.3125-2.707031-6.734375-5.28125-10.199219-7.808594-6.996094 7.824219-15.191406 14.484375-24.28125 19.726563zm0 0" fill="#0b7"/><path d="m470.207031 216.933594c-4.433593-12.789063-12.3125-24.105469-22.769531-32.703125-9.589844-7.257813-20.4375-12.683594-32-16-25.917969-6.71875-36.558594 6-64 0-20.160156-4.398438-38.078125-8.160157-48-24-13.757812-22.078125-7.519531-52.320313 8-64 12.5625-9.4375 22.320312 0 40-8 9.089844-5.242188 17.285156-11.902344 24.28125-19.726563-39.578125-28.84375-87.308594-44.347656-136.28125-44.273437-1.839844 0-3.679688 0-5.519531.160156-21.359375 33.121094-22.160157 56.402344-18.480469 71.839844 7.121094 30.160156 32.800781 37.679687 32 64-.800781 26.882812-28.398438 47.441406-40 56-35.917969 26.722656-65.28125 19.921875-72 40-3.472656 15.363281 2.890625 31.273437 16 40 16.082031 10 29.601562-4.800781 64 0 16.402344 2.320312 31.761719 4.480469 40 16 11.199219 15.761719-2.640625 32.242187 8 64 3.121094 9.359375 7.679688 22.800781 16 24 10.480469 1.601562 15.28125-17.757813 33.039062-34.160157-6.632812-11.027343-12.566406-22.464843-17.757812-34.238281-4.136719-8.664062-6.605469-18.027343-7.28125-27.601562 0-35.34375 28.65625-64 64-64 35.347656 0 64 28.65625 64 64-1.757812 15.003906-6.636719 29.472656-14.320312 42.480469 15.382812 3.539062 29.871093 10.210937 42.5625 19.601562 16.476562-30.445312 25.855468-64.21875 27.4375-98.800781v-.082031c.242187-3.679688.320312-7.4375.320312-11.199219 0-7.871094-.464844-15.625-1.230469-23.296875zm0 0" fill="#83d8f4"/><path d="m207.4375 424.230469c8.878906-14.960938 22.242188-10.238281 32-24 12-16.878907 7.839844-46.480469-8-64-8.152344-9.324219-19.644531-15.070313-32-16-8.558594.535156-16.832031 3.292969-24 8-5.359375 2.640625-38.71875 18.800781-64 16-22.800781-2.558594-38.078125-20.320313-48-32-22.640625-26.480469-27.121094-55.757813-32-88-5.363281-28.253907-5.519531-57.25-.457031-85.558594-32.976563 67.457031-31.222657 146.714844 4.707031 212.644531 35.929688 65.933594 101.578125 110.371094 176.144531 119.226563-1.6875-1.941407-3.15625-4.058594-4.394531-6.3125-6.71875-12.484375-6.71875-27.511719 0-40zm0 0" fill="#83d8f4"/><path d="m351.4375 408.230469s-20.960938-27.757813-38.960938-58.160157c-17.757812 16.402344-22.558593 35.761719-33.039062 34.160157-8.320312-1.199219-12.878906-14.640625-16-24-10.640625-31.757813 3.199219-48.238281-8-64-8.238281-11.519531-23.597656-13.679688-40-16-34.398438-4.800781-47.917969 10-64 0-13.109375-8.726563-19.472656-24.636719-16-40 6.71875-20.078125 36.082031-13.277344 72-40 11.601562-8.558594 39.199219-29.117188 40-56 .800781-26.320313-24.878906-33.839844-32-64-3.679688-15.4375-2.878906-38.71875 18.480469-71.839844-27.371094.519531-54.421875 5.996094-79.839844 16.160156 13.617187 12.105469 21.390625 29.460938 21.359375 47.679688 0 35.359375-64 120-64 120s-39.917969-52.800781-56.71875-92.398438c-9.167969 12.136719-17.121094 25.144531-23.738281 38.839844-5.0625 28.308594-4.90625 57.304687.457031 85.558594 4.878906 32.242187 9.359375 61.519531 32 88 9.921875 11.679687 25.199219 29.441406 48 32 25.28125 2.800781 58.640625-13.359375 64-16 7.167969-4.707031 15.441406-7.464844 24-8 12.355469.929687 23.847656 6.675781 32 16 15.839844 17.519531 20 47.121093 8 64-9.757812 13.761719-23.121094 9.039062-32 24-6.71875 12.488281-6.71875 27.515625 0 40 1.238281 2.253906 2.707031 4.371093 4.394531 6.3125 9.160157 1.105469 18.378907 1.667969 27.605469 1.6875 85.328125.042969 163.785156-46.792969 204.242188-121.917969-12.691407-9.390625-27.179688-16.0625-42.5625-19.601562-14.679688 26.996093-31.285157 52.902343-49.679688 77.519531zm0 0" fill="#0b7"/><path d="m175.4375 72.230469c0-35.34375-28.652344-64-64-64-35.34375 0-64 28.65625-64 64 .675781 9.574219 3.144531 18.9375 7.28125 27.601562 16.800781 39.597657 56.71875 92.398438 56.71875 92.398438s64-84.640625 64-120zm-88-8c0-13.253907 10.746094-24 24-24s24 10.746093 24 24c0 13.253906-10.746094 24-24 24s-24-10.746094-24-24zm0 0" fill="#ff5023"/><path d="m135.4375 64.230469c0 13.253906-10.746094 24-24 24s-24-10.746094-24-24c0-13.253907 10.746094-24 24-24s24 10.746093 24 24zm0 0" fill="#f1f2f2"/><path d="m401.117188 330.710938c7.683593-13.007813 12.5625-27.476563 14.320312-42.480469 0-35.34375-28.652344-64-64-64-35.34375 0-64 28.65625-64 64 .675781 9.574219 3.144531 18.9375 7.28125 27.601562 5.191406 11.773438 11.125 23.210938 17.757812 34.238281 18 30.402344 38.960938 58.160157 38.960938 58.160157 18.394531-24.617188 35-50.523438 49.679688-77.519531zm-73.679688-50.480469c0-13.253907 10.746094-24 24-24s24 10.746093 24 24c0 13.253906-10.746094 24-24 24s-24-10.746094-24-24zm0 0" fill="#ffcd00"/><path d="m375.4375 280.230469c0 13.253906-10.746094 24-24 24s-24-10.746094-24-24c0-13.253907 10.746094-24 24-24s24 10.746093 24 24zm0 0" fill="#f1f2f2"/><path d="m478.636719 221.765625c.277343-.75.4375-1.535156.472656-2.335937 0-.84375-.136719-1.683594-.398437-2.484376l-.617188-1.746093c-6.53125-63.125-37.867188-121.070313-87.121094-161.085938-3.519531-2.867187-7.199218-5.457031-10.878906-8.113281-.183594-.152344-.28125-.367188-.480469-.511719s-.359375-.128906-.527343-.234375c-40.722657-29.191406-89.542969-44.929687-139.648438-45.023437-2.0625 0-4.136719 0-5.679688.160156-26.726562.519531-53.164062 5.605469-78.175781 15.039063-21.683593-16.914063-51.117187-19.980469-75.824219-7.898438-24.707031 12.082031-40.359374 37.199219-40.320312 64.699219.480469 9.148437 2.605469 18.132812 6.28125 26.519531-8.164062 11.160156-15.351562 23-21.480469 35.394531-.121093.191407-.191406.398438-.296875.597657-56.71875 117.277343-9.523437 258.390624 106.339844 317.945312 115.859375 59.558594 258.078125 15.8125 320.4375-98.566406 17.078125-31.464844 26.785156-66.398438 28.382812-102.160156.25-3.859376.335938-7.792969.335938-11.730469 0-6.199219-.320312-12.34375-.800781-18.464844zm-23.246094-41.054687c-1.015625-.902344-1.953125-1.945313-3.015625-2.777344-10.453125-7.9375-22.300781-13.855469-34.929688-17.445313-11.5-2.886719-23.519531-3.011719-35.078124-.367187-9.832032 2.226562-20.027344 2.277344-29.882813.148437-19.125-4.175781-34.238281-7.46875-42.253906-20.269531-11.480469-18.402344-6.097657-44.265625 6.015625-53.367188 3.992187-2.753906 8.917968-3.804687 13.6875-2.921874 8.484375.695312 17.011718-.742188 24.800781-4.175782 8.289063-3.882812 15.652344-9.488281 21.601563-16.449218 1.511718 1.167968 3.109374 2.21875 4.589843 3.425781 36.101563 29.390625 62.128907 69.3125 74.464844 114.199219zm-343.953125-164.480469c30.910156.050781 55.953125 25.09375 56 56 0 23.929687-35.941406 78.714843-56 106.488281-19.019531-25.703125-35.546875-53.164062-49.351562-82.007812-3.761719-7.660157-6.019532-15.96875-6.648438-24.480469.035156-30.914063 25.085938-55.964844 56-56zm-96 224c.03125-14.90625 1.535156-29.777344 4.488281-44.390625.855469 11.121094 2.304688 21.015625 3.601563 29.597656 4.957031 32.800781 9.640625 63.722656 33.816406 92 10.109375 11.914062 27.039062 31.832031 53.214844 34.777344 26.175781 2.945312 58.953125-12.113282 68.421875-16.800782l3.632812-1.832031c5.03125-3.167969 10.78125-5.007812 16.714844-5.351562 10.121094.917969 19.496094 5.707031 26.175781 13.367187 13.652344 15.113282 17.117188 40.347656 7.414063 54-3.109375 4.054688-7.402344 7.039063-12.289063 8.539063-8.363281 2.796875-15.472656 8.464843-20.0625 16-6.761718 12.242187-8.019531 26.777343-3.457031 40-105.359375-20.414063-181.507813-112.585938-181.671875-219.90625zm224 224c-7.730469 0-15.453125-.398438-23.144531-1.191407-.65625-.839843-1.265625-1.714843-1.824219-2.625-5.40625-10-5.464844-22.042968-.152344-32.09375 2.886719-4.585937 7.359375-7.949218 12.5625-9.449218 7.628906-2.628906 14.285156-7.515625 19.078125-14.007813 13.914063-19.566406 9.976563-53.464843-8.558593-73.96875-9.640626-11.023437-23.28125-17.742187-37.894532-18.664062h-.355468c-8.425782.253906-16.636719 2.699219-23.832032 7.097656l-3.414062 1.726563c-17.480469 8.617187-42.351563 17.136718-59.566406 15.199218-19.867188-2.222656-33.664063-18.480468-42.816407-29.246094-21.21875-24.800781-25.371093-52.242187-30.167969-84-5.148437-27.167968-5.351562-55.039062-.609374-82.28125 4.285156-8.675781 9.125-17.066406 14.496093-25.121093.265625.53125.558594 1.074219.800781 1.601562.511719 1.015625 1.039063 2.023438 1.597657 3.039063.800781 1.511718 1.601562 3.023437 2.402343 4.546875.550782 1.023437 1.109376 2.046875 1.679688 3.078125.847656 1.519531 1.703125 3.039062 2.566406 4.558594.578125 1.007812 1.152344 2.019531 1.738282 3.027343.890624 1.519531 1.78125 3.03125 2.679687 4.542969.589844.992188 1.175781 1.976562 1.773437 2.960938.945313 1.597656 1.898438 3.09375 2.851563 4.636718.542969.875 1.078125 1.761719 1.597656 2.625 1.183594 1.898438 2.359375 3.738282 3.535157 5.601563.3125.480469.625.984375.929687 1.457031 1.464844 2.269531 2.917969 4.484375 4.34375 6.644531.542969.800781 1.070313 1.601563 1.601563 2.402344.878906 1.320313 1.757812 2.640625 2.613281 3.902344l1.898437 2.777343c.6875 1.015626 1.382813 2.03125 2.054688 3l1.917968 2.757813c.59375.859375 1.1875 1.699219 1.753907 2.503906.566406.808594 1.207031 1.722657 1.800781 2.546875.589844.824219.992188 1.398438 1.464844 2.0625l1.597656 2.207032 1.304688 1.808593 1.273437 1.753907 1.039063 1.40625.976562 1.328124.582031.800782c.714844.96875 1.257813 1.695312 1.410157 1.894531 1.507812 2.015625 3.878906 3.203125 6.398437 3.203125s4.890625-1.1875 6.398437-3.203125c6.714844-8.902344 65.617188-87.871094 65.617188-124.847656 0-2.335938-.144531-4.65625-.367188-6.960938-.070312-.710937-.183593-1.421875-.273437-2.132812-.207031-1.601563-.453125-3.203125-.796875-4.800781-.152344-.800782-.320312-1.550782-.496094-2.320313-.371094-1.601563-.800781-3.199219-1.289062-4.800781-.199219-.640625-.367188-1.289063-.578125-1.917969-.71875-2.144531-1.527344-4.265625-2.445313-6.328125-.175781-.394531-.386718-.800781-.570312-1.160156-.800782-1.664063-1.597656-3.3125-2.519532-4.921875-.398437-.71875-.839843-1.414063-1.269531-2.121094-.769531-1.261719-1.570312-2.503906-2.402343-3.726563-.496094-.710937-1-1.421874-1.519532-2.121093-.273437-.351563-.503906-.726563-.800781-1.070313 16.644531-5.605468 33.90625-9.183594 51.410156-10.65625-12.472656 23.542969-16.546875 45.320313-11.890625 64.800782 3.472656 13.046874 10.0625 25.058593 19.203125 35 7.527344 9.320312 12.941407 16.039062 12.605469 27.007812-.6875 23.199219-26.886719 42.511719-36.800781 49.808594-13.003907 9.363281-27.539063 16.382812-42.957031 20.75-14.53125 4.746094-27.066407 8.839844-31.859376 23.144531-4.738281 18.890625 3.042969 38.710937 19.371094 49.328125 9.785156 5.285156 21.316406 6.304688 31.878906 2.816406 11.570313-2.6875 23.53125-3.261718 35.304688-1.6875 15.199219 2.152344 28.304688 4 34.519531 12.703125 3.6875 5.199219 3.496094 10.574219 2.777344 20.433594-1.640625 13.957031-.222656 28.105469 4.148437 41.460937 3.648438 10.945313 9.160157 27.472657 22.402344 29.378907.859375.136719 1.730469.207031 2.597656.207031 9.371094 0 15.105469-8.273438 21.136719-16.976562 2.664063-3.847657 5.601563-8 9.121094-12.167969 16.464844 26.601562 33.191406 48.800781 33.96875 49.855469 1.511719 2.015624 3.882813 3.199218 6.398437 3.199218 2.519532 0 4.890626-1.183594 6.402344-3.199218 17.355469-23.242188 33.175782-47.601563 47.351563-72.910157 9.828125 2.847657 19.1875 7.113281 27.78125 12.664063-40.027344 69-113.773438 111.457031-193.542969 111.421875zm149.320312-217.703125c11.886719 10.601562 18.683594 25.773437 18.679688 41.703125 0 5.753906-2.335938 17.160156-13.429688 38.824219-12.664062 23.472656-26.882812 46.066406-42.570312 67.632812-7.527344-10.488281-20.480469-29.105469-32.070312-48.671875-6.460938-10.726563-12.230469-21.847656-17.28125-33.304687-3.761719-7.660157-6.019532-15.96875-6.648438-24.480469.035156-30.914063 25.085938-55.964844 56-56 1.730469 0 3.445312.078125 5.152344.234375 11.960937 1.082031 23.25 6.019531 32.167968 14.0625zm74.398438 4.609375c-1.378906 30.429687-9.046875 60.242187-22.527344 87.558593-8.765625-5.542968-18.210937-9.941406-28.09375-13.089843 6.179688-11.566407 9.894532-24.296875 10.902344-37.375-.066406-27.453125-15.675781-52.5-40.296875-64.65625l-.503906-.222657c-1.789063-.863281-3.605469-1.671874-5.460938-2.398437-1.273437-.496094-2.59375-.882813-3.898437-1.296875-.800782-.242188-1.519532-.542969-2.296875-.800781-2.0625-.585938-4.160157-1.0625-6.269531-1.457031h-.105469c-1.277344-.238282-2.574219-.367188-3.871094-.535157-20.570313-2.847656-41.363281 3.390625-56.96875 17.089844-15.609375 13.703125-24.488281 33.511719-24.328125 54.277344.621094 10.664062 3.3125 21.109375 7.921875 30.746093 4.484375 10.210938 9.542969 20.160157 15.152344 29.796876-5 5.472656-9.578125 11.3125-13.699219 17.472656-2.199219 3.769531-4.976562 7.167968-8.230469 10.074218-1.601562-.242187-4.566406-3.65625-9.601562-18.625-3.671875-11.363281-4.824219-23.394531-3.367188-35.246093 2.078125-10.644531.035157-21.679688-5.710937-30.875-10.214844-14.285157-28.046875-16.800781-45.398438-19.261719-13.488281-1.84375-27.199218-1.226562-40.464844 1.816406-10.234374 1.957032-14.984374 2.6875-20.417968-.699218-9.925782-6.804688-14.886719-18.839844-12.640625-30.664063 2.136719-6.398437 8.539062-8.710937 21.601562-13 17.058594-4.894531 33.136719-12.707031 47.527344-23.09375 11.65625-8.550781 42.402344-31.242187 43.328125-62.199219.511719-16.9375-7.960938-27.386718-16.152344-37.488281-7.570312-8.109375-13.078125-17.917969-16.0625-28.601563-4.25-17.824218 1.015625-38.726562 15.296875-62.152343h.917969c44.042969.0625 87.097656 13.078125 123.800781 37.425781-4.238281 4.722656-9.367187 8.558594-15.097656 11.289062-5.578125 2.414063-11.675781 3.367188-17.726563 2.773438-8.414062-1.039062-16.90625 1.144531-23.777343 6.113281-18.140625 13.65625-26.269531 48.480469-9.964844 74.632813 11.605469 18.535156 31.429687 22.855468 53.078125 27.574218 11.652344 2.460938 23.695312 2.410157 35.328125-.152343 9.335937-2.226563 19.070313-2.199219 28.390625.089843 10.488281 3.023438 20.332031 7.953126 29.042969 14.535157 9.046875 7.503906 15.90625 17.300781 19.863281 28.367187.65625 7.066406 1.0625 14.152344 1.0625 21.351563 0 3.578125-.070312 7.199219-.3125 10.90625zm0 0"/><path d="m111.4375 96.230469c17.671875 0 32-14.324219 32-32 0-17.671875-14.328125-32-32-32s-32 14.328125-32 32c0 17.675781 14.328125 32 32 32zm0-48c8.835938 0 16 7.164062 16 16 0 8.835937-7.164062 16-16 16s-16-7.164063-16-16c0-8.835938 7.164062-16 16-16zm0 0"/><path d="m319.4375 280.230469c0 17.675781 14.328125 32 32 32s32-14.324219 32-32c0-17.671875-14.328125-32-32-32s-32 14.328125-32 32zm48 0c0 8.835937-7.164062 16-16 16s-16-7.164063-16-16c0-8.835938 7.164062-16 16-16s16 7.164062 16 16zm0 0"/></svg>